<mxfile host="Electron" modified="2023-10-10T11:37:15.802Z" agent="Mozilla/5.0 (Windows NT 10.0; Win64; x64) AppleWebKit/537.36 (KHTML, like Gecko) draw.io/22.0.2 Chrome/114.0.5735.289 Electron/25.8.4 Safari/537.36" etag="_cPPJy28-XScOnfwe-cf" version="22.0.2" type="device">
  <diagram name="Page-1" id="c9db0220-8083-56f3-ca83-edcdcd058819">
    <mxGraphModel dx="1658" dy="820" grid="1" gridSize="10" guides="1" tooltips="1" connect="1" arrows="1" fold="1" page="1" pageScale="1.5" pageWidth="826" pageHeight="1169" background="none" math="0" shadow="0">
      <root>
        <mxCell id="0" style=";html=1;" />
        <mxCell id="1" style=";html=1;" parent="0" />
        <mxCell id="hR_0RiYdo9EWTyKfDabH-1" value="User/Customer" style="shape=umlActor;verticalLabelPosition=bottom;verticalAlign=top;html=1;outlineConnect=0;" parent="1" vertex="1">
          <mxGeometry x="140" y="900" width="30" height="60" as="geometry" />
        </mxCell>
        <mxCell id="hR_0RiYdo9EWTyKfDabH-2" value="Database" style="shape=datastore;whiteSpace=wrap;html=1;" parent="1" vertex="1">
          <mxGeometry x="690" y="580" width="70" height="80" as="geometry" />
        </mxCell>
        <mxCell id="hR_0RiYdo9EWTyKfDabH-6" style="edgeStyle=orthogonalEdgeStyle;rounded=0;orthogonalLoop=1;jettySize=auto;html=1;entryX=0;entryY=0.5;entryDx=0;entryDy=0;strokeColor=default;endArrow=classic;endFill=1;shadow=0;startArrow=classic;startFill=1;" parent="1" source="hR_0RiYdo9EWTyKfDabH-3" target="hR_0RiYdo9EWTyKfDabH-2" edge="1">
          <mxGeometry relative="1" as="geometry" />
        </mxCell>
        <mxCell id="hR_0RiYdo9EWTyKfDabH-3" value="Spring-Boot&lt;br&gt;(Back-end)" style="rounded=0;whiteSpace=wrap;html=1;" parent="1" vertex="1">
          <mxGeometry x="470" y="590" width="120" height="60" as="geometry" />
        </mxCell>
        <mxCell id="hR_0RiYdo9EWTyKfDabH-4" value="React&lt;br&gt;(Front-end)" style="rounded=0;whiteSpace=wrap;html=1;" parent="1" vertex="1">
          <mxGeometry x="270" y="590" width="120" height="60" as="geometry" />
        </mxCell>
        <mxCell id="hR_0RiYdo9EWTyKfDabH-8" value="" style="endArrow=classic;startArrow=classic;html=1;rounded=0;entryX=1;entryY=0.5;entryDx=0;entryDy=0;exitX=0;exitY=0.5;exitDx=0;exitDy=0;strokeColor=default;" parent="1" source="hR_0RiYdo9EWTyKfDabH-3" target="hR_0RiYdo9EWTyKfDabH-4" edge="1">
          <mxGeometry width="50" height="50" relative="1" as="geometry">
            <mxPoint x="490" y="920" as="sourcePoint" />
            <mxPoint x="540" y="870" as="targetPoint" />
          </mxGeometry>
        </mxCell>
        <mxCell id="hR_0RiYdo9EWTyKfDabH-21" value="" style="group" parent="1" vertex="1" connectable="0">
          <mxGeometry x="310" y="800" width="330" height="290" as="geometry" />
        </mxCell>
        <mxCell id="hR_0RiYdo9EWTyKfDabH-12" style="edgeStyle=orthogonalEdgeStyle;rounded=0;orthogonalLoop=1;jettySize=auto;html=1;" parent="hR_0RiYdo9EWTyKfDabH-21" source="hR_0RiYdo9EWTyKfDabH-11" edge="1">
          <mxGeometry relative="1" as="geometry">
            <mxPoint x="210" y="30" as="targetPoint" />
          </mxGeometry>
        </mxCell>
        <mxCell id="hR_0RiYdo9EWTyKfDabH-11" value="Home Page" style="rounded=0;whiteSpace=wrap;html=1;" parent="hR_0RiYdo9EWTyKfDabH-21" vertex="1">
          <mxGeometry width="120" height="60" as="geometry" />
        </mxCell>
        <mxCell id="hR_0RiYdo9EWTyKfDabH-13" value="Register" style="rounded=0;whiteSpace=wrap;html=1;" parent="hR_0RiYdo9EWTyKfDabH-21" vertex="1">
          <mxGeometry x="210" width="120" height="60" as="geometry" />
        </mxCell>
        <mxCell id="hR_0RiYdo9EWTyKfDabH-15" value="Login" style="rounded=0;whiteSpace=wrap;html=1;" parent="hR_0RiYdo9EWTyKfDabH-21" vertex="1">
          <mxGeometry x="210" y="120" width="120" height="60" as="geometry" />
        </mxCell>
        <mxCell id="hR_0RiYdo9EWTyKfDabH-16" style="edgeStyle=orthogonalEdgeStyle;rounded=0;orthogonalLoop=1;jettySize=auto;html=1;entryX=0.5;entryY=0;entryDx=0;entryDy=0;" parent="hR_0RiYdo9EWTyKfDabH-21" source="hR_0RiYdo9EWTyKfDabH-13" target="hR_0RiYdo9EWTyKfDabH-15" edge="1">
          <mxGeometry relative="1" as="geometry" />
        </mxCell>
        <mxCell id="hR_0RiYdo9EWTyKfDabH-17" value="Products List" style="rounded=0;whiteSpace=wrap;html=1;" parent="hR_0RiYdo9EWTyKfDabH-21" vertex="1">
          <mxGeometry x="210" y="230" width="120" height="60" as="geometry" />
        </mxCell>
        <mxCell id="hR_0RiYdo9EWTyKfDabH-18" value="" style="edgeStyle=orthogonalEdgeStyle;rounded=0;orthogonalLoop=1;jettySize=auto;html=1;" parent="hR_0RiYdo9EWTyKfDabH-21" source="hR_0RiYdo9EWTyKfDabH-15" target="hR_0RiYdo9EWTyKfDabH-17" edge="1">
          <mxGeometry relative="1" as="geometry" />
        </mxCell>
        <mxCell id="hR_0RiYdo9EWTyKfDabH-22" value="" style="rounded=0;whiteSpace=wrap;html=1;fillColor=none;" parent="1" vertex="1">
          <mxGeometry x="260" y="760" width="430" height="390" as="geometry" />
        </mxCell>
        <mxCell id="hR_0RiYdo9EWTyKfDabH-23" style="edgeStyle=orthogonalEdgeStyle;rounded=0;orthogonalLoop=1;jettySize=auto;html=1;entryX=0.002;entryY=0.472;entryDx=0;entryDy=0;entryPerimeter=0;" parent="1" source="hR_0RiYdo9EWTyKfDabH-1" target="hR_0RiYdo9EWTyKfDabH-22" edge="1">
          <mxGeometry relative="1" as="geometry" />
        </mxCell>
        <mxCell id="hR_0RiYdo9EWTyKfDabH-43" style="edgeStyle=orthogonalEdgeStyle;rounded=0;orthogonalLoop=1;jettySize=auto;html=1;entryX=0;entryY=0.5;entryDx=0;entryDy=0;" parent="1" source="hR_0RiYdo9EWTyKfDabH-24" target="hR_0RiYdo9EWTyKfDabH-42" edge="1">
          <mxGeometry relative="1" as="geometry" />
        </mxCell>
        <mxCell id="hR_0RiYdo9EWTyKfDabH-24" value="Admin" style="shape=umlActor;verticalLabelPosition=bottom;verticalAlign=top;html=1;outlineConnect=0;" parent="1" vertex="1">
          <mxGeometry x="140" y="1380" width="30" height="60" as="geometry" />
        </mxCell>
        <mxCell id="hR_0RiYdo9EWTyKfDabH-27" value="Products List" style="rounded=0;whiteSpace=wrap;html=1;container=0;" parent="1" vertex="1">
          <mxGeometry x="550" y="1260" width="120" height="60" as="geometry" />
        </mxCell>
        <mxCell id="hR_0RiYdo9EWTyKfDabH-28" value="Create Products" style="rounded=0;whiteSpace=wrap;html=1;container=0;" parent="1" vertex="1">
          <mxGeometry x="550" y="1340" width="120" height="60" as="geometry" />
        </mxCell>
        <mxCell id="hR_0RiYdo9EWTyKfDabH-38" style="edgeStyle=orthogonalEdgeStyle;rounded=0;orthogonalLoop=1;jettySize=auto;html=1;entryX=0;entryY=0.5;entryDx=0;entryDy=0;exitX=1;exitY=0.5;exitDx=0;exitDy=0;" parent="1" source="hR_0RiYdo9EWTyKfDabH-29" target="hR_0RiYdo9EWTyKfDabH-27" edge="1">
          <mxGeometry relative="1" as="geometry">
            <mxPoint x="450" y="1420" as="sourcePoint" />
            <mxPoint x="520" y="1330" as="targetPoint" />
          </mxGeometry>
        </mxCell>
        <mxCell id="hR_0RiYdo9EWTyKfDabH-40" style="edgeStyle=orthogonalEdgeStyle;rounded=0;orthogonalLoop=1;jettySize=auto;html=1;entryX=0;entryY=0.5;entryDx=0;entryDy=0;" parent="1" source="hR_0RiYdo9EWTyKfDabH-29" target="hR_0RiYdo9EWTyKfDabH-31" edge="1">
          <mxGeometry relative="1" as="geometry" />
        </mxCell>
        <mxCell id="hR_0RiYdo9EWTyKfDabH-41" style="edgeStyle=orthogonalEdgeStyle;rounded=0;orthogonalLoop=1;jettySize=auto;html=1;entryX=0;entryY=0.5;entryDx=0;entryDy=0;" parent="1" source="hR_0RiYdo9EWTyKfDabH-29" target="hR_0RiYdo9EWTyKfDabH-37" edge="1">
          <mxGeometry relative="1" as="geometry" />
        </mxCell>
        <mxCell id="hR_0RiYdo9EWTyKfDabH-29" value="Login" style="rounded=0;whiteSpace=wrap;html=1;container=0;" parent="1" vertex="1">
          <mxGeometry x="340" y="1390" width="120" height="60" as="geometry" />
        </mxCell>
        <mxCell id="hR_0RiYdo9EWTyKfDabH-31" value="Order List" style="rounded=0;whiteSpace=wrap;html=1;container=0;" parent="1" vertex="1">
          <mxGeometry x="550" y="1427" width="120" height="60" as="geometry" />
        </mxCell>
        <mxCell id="hR_0RiYdo9EWTyKfDabH-37" value="Customer List" style="rounded=0;whiteSpace=wrap;html=1;container=0;" parent="1" vertex="1">
          <mxGeometry x="550" y="1520" width="120" height="60" as="geometry" />
        </mxCell>
        <mxCell id="hR_0RiYdo9EWTyKfDabH-39" style="edgeStyle=orthogonalEdgeStyle;rounded=0;orthogonalLoop=1;jettySize=auto;html=1;entryX=0.003;entryY=0.622;entryDx=0;entryDy=0;entryPerimeter=0;" parent="1" source="hR_0RiYdo9EWTyKfDabH-29" target="hR_0RiYdo9EWTyKfDabH-28" edge="1">
          <mxGeometry relative="1" as="geometry" />
        </mxCell>
        <mxCell id="hR_0RiYdo9EWTyKfDabH-42" value="" style="rounded=0;whiteSpace=wrap;html=1;fillColor=none;" parent="1" vertex="1">
          <mxGeometry x="260" y="1180" width="460" height="460" as="geometry" />
        </mxCell>
      </root>
    </mxGraphModel>
  </diagram>
</mxfile>
